<svg width="180" height="180" viewBox="0 0 180 180" fill="none" xmlns="http://www.w3.org/2000/svg">
<rect width="180" height="180" rx="36" fill="#0D9488"/>
<path d="M90 25C90 25 35 45 35 85C35 125 60 155 90 166C120 155 145 125 145 85C145 45 90 25 90 25Z" fill="white" opacity="0.2"/>
<path d="M90 25C90 25 35 45 35 85C35 125 60 155 90 166C120 155 145 125 145 85C145 45 90 25 90 25Z" stroke="white" stroke-width="5" stroke-linecap="round" stroke-linejoin="round" opacity="0.9"/>
<path d="M50 65C50 56 57 49 66 49H114C123 49 130 56 130 65V95C130 104 123 111 114 111H76L56 127V111H66C57 111 50 104 50 95V65Z" fill="white" opacity="0.95"/>
<circle cx="73" cy="80" r="7" fill="#0D9488" opacity="0.6"/>
<circle cx="90" cy="80" r="7" fill="#0D9488" opacity="0.6"/>
<circle cx="107" cy="80" r="7" fill="#0D9488" opacity="0.6"/>
</svg>
